<?xml version="1.0" standalone="no"?><!DOCTYPE svg PUBLIC "-//W3C//DTD SVG 1.1//EN" "http://www.w3.org/Graphics/SVG/1.1/DTD/svg11.dtd"><svg t="1527004628029" class="icon" style="" viewBox="0 0 1024 1024" version="1.1" xmlns="http://www.w3.org/2000/svg" p-id="1098" xmlns:xlink="http://www.w3.org/1999/xlink" width="48" height="48"><defs><style type="text/css"></style></defs><path d="M112.2 442.7l39.5 7c3.4 0.6 6.7-1.8 7.3-5.3l22-132.8c0.6-3.6-1.7-7-5.1-7.6l-12-2.1c-32.6-5.8-63.5 16.9-69.1 50.7l-8.6 51.8c-3 18.1 8.6 35.2 26 38.3zM916.8 442.6l-39.5 7c-3.4 0.6-6.7-1.8-7.3-5.3l-22-132.8c-0.6-3.6 1.7-7 5.1-7.6l12-2.1c32.6-5.8 63.5 16.9 69.1 50.7l8.6 51.8c3 18.1-8.7 35.2-26 38.3z" fill="#FCCA4C" p-id="1099"></path><path d="M942.8 404.3l-8.6-51.8c-5.6-33.8-36.5-56.5-69.1-50.7l-0.3 0.1c24.1 4.5 44 24.2 48.4 50.7l8.6 51.8c3 18.1-8.7 35.2-26.1 38.3l-24.7 4.4c1.4 2 3.7 3.1 6.2 2.6l39.5-7c17.4-3.2 29.1-20.3 26.1-38.4z" fill="#FEE5A6" p-id="1100"></path><path d="M86.2 404.3l8.6-51.8c5.6-33.8 36.5-56.5 69.1-50.7l0.3 0.1c-24.1 4.5-44 24.2-48.4 50.7l-8.6 51.8c-3 18.1 8.7 35.2 26.1 38.3l24.7 4.4c-1.4 2-3.7 3.1-6.2 2.6l-39.5-7c-17.5-3.2-29.1-20.3-26.1-38.4z" fill="#F99403" p-id="1101"></path><path d="M307 895.7H183.1c-16.6 0-30-13.4-30-30V612.9H337v252.8c0 16.6-13.5 30-30 30zM842.4 895.7H716.8c-16.6 0-30-13.4-30-30V612.9h185.6v252.8c0 16.6-13.4 30-30 30z" fill="#3173E7" p-id="1102"></path><path d="M307 871.3H183.1c-16.6 0-30-13.4-30-30V588.4H337v252.8c0 16.7-13.5 30.1-30 30.1zM842.4 871.3H716.8c-16.6 0-30-13.4-30-30V588.4h185.6v252.8c0 16.7-13.4 30.1-30 30.1z" fill="#5EADEF" p-id="1103"></path><path d="M686.8 532.7h185.6v282.8H686.8z" fill="#55A1ED" p-id="1104"></path><path d="M875.5 452.3H150.3l49.2-258.6c7.2-37.9 41.2-65.4 80.9-65.4h464.9c39.7 0 73.7 27.5 80.9 65.4l49.3 258.6z" fill="#5EADEF" p-id="1105"></path><path d="M298.6 140.3l458.5-11.2c-3.8-0.5-7.7-0.8-11.6-0.8h-465c-39.7 0-73.7 27.5-80.9 65.4l-49.2 258.6h21.1l46.2-246.6c7.2-37.9 41.2-65.4 80.9-65.4z" fill="#4C96EC" p-id="1106"></path><path d="M826.2 193.7c-7.2-37.9-41.2-65.4-80.9-65.4h-30c39.7 0 73.7 27.5 80.9 65.4l49.2 258.6h30l-49.2-258.6z" fill="#8FC6F4" p-id="1107"></path><path d="M760.1 412.7H265.7c-25.5 0-44.9-22.3-40.5-46.8l25.7-145.5c6-31.7 34.5-54.7 67.6-54.7h388.8c33.2 0 61.6 23 67.6 54.7L800.6 366c4.4 24.4-15 46.7-40.5 46.7z" fill="#E7F5FD" p-id="1108"></path><path d="M153.1 532.7H337v282.8H153.1z" fill="#55A1ED" p-id="1109"></path><path d="M913.1 797.1H110.7c-16.6 0-30-13.4-30-30V529.7c0-44.2 35.8-80 80-80h702.4c44.2 0 80 35.8 80 80v237.4c0 16.6-13.4 30-30 30z" fill="#E7F5FD" p-id="1110"></path><path d="M346.8 645.1H201.9c-11 0-20-9-20-20v-41.3c0-19.7 16-35.7 35.7-35.7h129.2c11 0 20 9 20 20v57c0 11-8.9 20-20 20zM81.7 719.9h861.4v32H81.7zM823.3 645.1H678c-11 0-20-9-20-20v-57c0-11 9-20 20-20h132.4c18.2 0 32.9 14.7 32.9 32.9v44.1c0 11-9 20-20 20z" fill="#5EADEF" p-id="1111"></path><path d="M455.1 165.7l-181.5 247h88.6l185-247zM644.4 165.7l-181.5 247h68.6l185-247z" fill="#FAFDFF" p-id="1112"></path><path d="M863.2 449.7H816c44.2 0 80 35.8 80 80v237.4c0 16.6-13.4 30-30 30h47.2c16.6 0 30-13.4 30-30V529.7c0-44.2-35.9-80-80-80z" fill="#F0F8FC" p-id="1113"></path><path d="M896.2 719.9h47.1v32h-47.1z" fill="#DFEFFC" p-id="1114"></path><path d="M110.7 767.1V545.7c0-44.2 35.8-80 80-80l681.1-15.5c-2.9-0.3-5.8-0.5-8.7-0.5H160.7c-44.2 0-80 35.8-80 80v237.4c0 16.6 13.4 30 30 30h30c-16.5 0-30-13.4-30-30z" fill="#9EC1F4" p-id="1115"></path><path d="M80.7 719.9h30v32h-30z" fill="#4C96EC" p-id="1116"></path></svg>