<?xml version="1.0" standalone="no"?><!DOCTYPE svg PUBLIC "-//W3C//DTD SVG 1.1//EN" "http://www.w3.org/Graphics/SVG/1.1/DTD/svg11.dtd"><svg t="1527004665422" class="icon" style="" viewBox="0 0 1024 1024" version="1.1" xmlns="http://www.w3.org/2000/svg" p-id="3496" xmlns:xlink="http://www.w3.org/1999/xlink" width="48" height="48"><defs><style type="text/css"></style></defs><path d="M826.5 931.3H198.4c-38.8 0-70.3-31.5-70.3-70.3V196.2c0-38.8 31.5-70.3 70.3-70.3h628.1c38.8 0 70.3 31.5 70.3 70.3V861c0 38.8-31.5 70.3-70.3 70.3z" fill="#3173E7" p-id="3497"></path><path d="M283.6 960.1H163.7c-20.2 0-36.5-16.3-36.5-36.5V130.9c0-20.2 16.3-36.5 36.5-36.5h119.8c20.2 0 36.5 16.3 36.5 36.5v792.7c0.1 20.2-16.3 36.5-36.4 36.5z" fill="#3173E7" p-id="3498"></path><path d="M826.3 900.9h-628c-38.8 0-70.3-31.5-70.3-70.3V165.8c0-38.8 31.5-70.3 70.3-70.3h628c38.8 0 70.3 31.5 70.3 70.3v664.8c0 38.9-31.5 70.3-70.3 70.3z" fill="#5EADEF" p-id="3499"></path><path d="M822 95.7h-45.8c41.2 0 74.6 31.1 74.6 69.6v666.2c0 38.4-33.4 69.6-74.6 69.6H822c41.2 0 74.6-31.1 74.6-69.6V165.2c0-38.4-33.4-69.5-74.6-69.5z" fill="#8FC6F4" p-id="3500"></path><path d="M283.7 929.6H164.5c-20.1 0-36.4-16.3-36.4-36.4V100.3c0-20.1 16.3-36.4 36.4-36.4h119.1c20.1 0 36.4 16.3 36.4 36.4v792.9c0.1 20.1-16.2 36.4-36.3 36.4z" fill="#5EADEF" p-id="3501"></path><path d="M374.4 152.3h435.7v204.9H374.4z" fill="#E7F5FD" p-id="3502"></path><path d="M374.4 152.3h435.7v14.6H374.4z" fill="#3173E7" p-id="3503"></path><path d="M470.3 539.8h-77.9c-8.3 0-15.1-6.7-15.1-15.1v-56.2c0-8.3 6.7-15.1 15.1-15.1h77.9c8.3 0 15.1 6.7 15.1 15.1v56.2c0 8.4-6.8 15.1-15.1 15.1z" fill="#F99403" p-id="3504"></path><path d="M632.1 539.8h-77.9c-8.3 0-15.1-6.7-15.1-15.1v-56.2c0-8.3 6.7-15.1 15.1-15.1h77.9c8.3 0 15.1 6.7 15.1 15.1v56.2c-0.1 8.4-6.8 15.1-15.1 15.1z" fill="#3173E7" p-id="3505"></path><path d="M795.5 539.8h-77.9c-8.3 0-15.1-6.7-15.1-15.1v-56.2c0-8.3 6.7-15.1 15.1-15.1h77.9c8.3 0 15.1 6.7 15.1 15.1v56.2c0 8.4-6.8 15.1-15.1 15.1z" fill="#F99403" p-id="3506"></path><path d="M470.3 681.8h-77.9c-8.3 0-15.1-6.7-15.1-15.1v-56.2c0-8.3 6.7-15.1 15.1-15.1h77.9c8.3 0 15.1 6.7 15.1 15.1v56.2c0 8.4-6.8 15.1-15.1 15.1z" fill="#FF8415" p-id="3507"></path><path d="M632.1 681.8h-77.9c-8.3 0-15.1-6.7-15.1-15.1v-56.2c0-8.3 6.7-15.1 15.1-15.1h77.9c8.3 0 15.1 6.7 15.1 15.1v56.2c-0.1 8.4-6.8 15.1-15.1 15.1z" fill="#F99403" p-id="3508"></path><path d="M795.5 681.8h-77.9c-8.3 0-15.1-6.7-15.1-15.1v-56.2c0-8.3 6.7-15.1 15.1-15.1h77.9c8.3 0 15.1 6.7 15.1 15.1v56.2c0 8.4-6.8 15.1-15.1 15.1z" fill="#3173E7" p-id="3509"></path><path d="M470.3 825.8h-77.9c-8.3 0-15.1-6.7-15.1-15.1v-56.2c0-8.3 6.7-15.1 15.1-15.1h77.9c8.3 0 15.1 6.7 15.1 15.1v56.2c0 8.4-6.8 15.1-15.1 15.1z" fill="#F99403" p-id="3510"></path><path d="M632.1 825.8h-77.9c-8.3 0-15.1-6.7-15.1-15.1v-56.2c0-8.3 6.7-15.1 15.1-15.1h77.9c8.3 0 15.1 6.7 15.1 15.1v56.2c-0.1 8.4-6.8 15.1-15.1 15.1z" fill="#3173E7" p-id="3511"></path><path d="M795.5 825.8h-77.9c-8.3 0-15.1-6.7-15.1-15.1v-56.2c0-8.3 6.7-15.1 15.1-15.1h77.9c8.3 0 15.1 6.7 15.1 15.1v56.2c0 8.4-6.8 15.1-15.1 15.1z" fill="#F99403" p-id="3512"></path><path d="M470.3 530.1h-77.9c-8.3 0-15.1-6.7-15.1-15.1v-56.2c0-8.3 6.7-15.1 15.1-15.1h77.9c8.3 0 15.1 6.7 15.1 15.1V515c0 8.3-6.8 15.1-15.1 15.1z" fill="#FCCA4C" p-id="3513"></path><path d="M731.3 278.7h-103c-7 0-12.8 5.7-12.8 12.8 0 7 5.7 12.8 12.8 12.8h103.1c7 0 12.8-5.7 12.8-12.8-0.1-7.1-5.8-12.8-12.9-12.8zM731.3 226.1H526.6c-7 0-12.8 5.7-12.8 12.8 0 7 5.7 12.8 12.8 12.8h204.7c7 0 12.8-5.7 12.8-12.8 0-7.1-5.7-12.8-12.8-12.8z" fill="#3173E7" p-id="3514"></path><path d="M632.1 530.1h-77.9c-8.3 0-15.1-6.7-15.1-15.1v-56.2c0-8.3 6.7-15.1 15.1-15.1h77.9c8.3 0 15.1 6.7 15.1 15.1V515c-0.1 8.3-6.8 15.1-15.1 15.1z" fill="#E7F5FD" p-id="3515"></path><path d="M795.5 530.1h-77.9c-8.3 0-15.1-6.7-15.1-15.1v-56.2c0-8.3 6.7-15.1 15.1-15.1h77.9c8.3 0 15.1 6.7 15.1 15.1V515c0 8.3-6.8 15.1-15.1 15.1z" fill="#FCCA4C" p-id="3516"></path><path d="M470.3 672.1h-77.9c-8.3 0-15.1-6.7-15.1-15.1v-56.2c0-8.3 6.7-15.1 15.1-15.1h77.9c8.3 0 15.1 6.7 15.1 15.1V657c0 8.4-6.8 15.1-15.1 15.1z" fill="#E7F5FD" p-id="3517"></path><path d="M632.1 672.1h-77.9c-8.3 0-15.1-6.7-15.1-15.1v-56.2c0-8.3 6.7-15.1 15.1-15.1h77.9c8.3 0 15.1 6.7 15.1 15.1V657c-0.1 8.4-6.8 15.1-15.1 15.1z" fill="#FCCA4C" p-id="3518"></path><path d="M795.5 672.1h-77.9c-8.3 0-15.1-6.7-15.1-15.1v-56.2c0-8.3 6.7-15.1 15.1-15.1h77.9c8.3 0 15.1 6.7 15.1 15.1V657c0 8.4-6.8 15.1-15.1 15.1z" fill="#E7F5FD" p-id="3519"></path><path d="M470.3 816.1h-77.9c-8.3 0-15.1-6.7-15.1-15.1v-56.2c0-8.3 6.7-15.1 15.1-15.1h77.9c8.3 0 15.1 6.7 15.1 15.1V801c0 8.3-6.8 15.1-15.1 15.1z" fill="#FCCA4C" p-id="3520"></path><path d="M632.1 816.1h-77.9c-8.3 0-15.1-6.7-15.1-15.1v-56.2c0-8.3 6.7-15.1 15.1-15.1h77.9c8.3 0 15.1 6.7 15.1 15.1V801c-0.1 8.3-6.8 15.1-15.1 15.1z" fill="#E7F5FD" p-id="3521"></path><path d="M795.5 816.1h-77.9c-8.3 0-15.1-6.7-15.1-15.1v-56.2c0-8.3 6.7-15.1 15.1-15.1h77.9c8.3 0 15.1 6.7 15.1 15.1V801c0 8.3-6.8 15.1-15.1 15.1z" fill="#FCCA4C" p-id="3522"></path><path d="M379.51 153.595v203.6h-5.1v-203.6zM810.159 153.646v203.6h-5.1v-203.6z" fill="#3173E7" p-id="3523"></path><path d="M278.7 63.9h-32.6c22.8 0 41.3 17.3 41.3 38.7v788.3c0 21.4-18.5 38.7-41.3 38.7h32.6c22.8 0 41.3-17.3 41.3-38.7V102.6c0.1-21.4-18.4-38.7-41.3-38.7z" fill="#8FC6F4" p-id="3524"></path></svg>